<svg width="50" height="44" viewBox="0 0 50 44" fill="none" xmlns="http://www.w3.org/2000/svg">
<path d="M2.3533 38.6512L9.702 35.3643M2.3533 38.6512L2 5.5969L9.702 2M2.3533 38.6512L9.702 42L17.4747 38.6512M9.702 35.3643V2M9.702 35.3643L17.4747 38.6512M9.702 2L17.4747 5.16279L32.4547 18.4341M17.4747 38.6512V25.5039M32.4547 5.16279L39.874 8.75969M32.4547 5.16279L39.874 2L48 5.16279M32.4547 5.16279V18.4341M39.874 8.75969L48 5.16279M39.874 8.75969V41.7519M48 5.16279V38.6512L39.874 41.7519M39.874 41.7519L32.4547 38.6512L17.4747 25.5039M32.4547 18.4341V28.1085L17.4747 15.8295V25.5039" stroke="white" stroke-width="2.6"/>
</svg>
